<svg xmlns="http://www.w3.org/2000/svg" viewBox="0 0 785.09518 145.54217">
  <title>FreshySites horizontal logo</title>
  <g>
    <g>
      <path d="M589.06222,88.69781c0,16.81268-14.01037,27.75464-32.02526,27.75464-19.6156,0-32.82648-12.67682-32.82648-28.15528h16.14587c.135,7.07257,6.93946,13.61041,17.08039,13.61041,9.34143,0,15.34637-5.33685,15.34637-12.54266,0-6.40546-5.47021-10.14166-13.21094-12.27618l-11.47509-3.20319c-19.74891-5.07037-23.21863-16.94592-23.21863-24.953,0-16.27881,14.27868-26.82013,31.224-26.82013,16.8139,0,30.02484,10.40808,30.02484,27.6214H569.98141c0-7.60645-5.73846-13.07746-14.27868-13.07746-7.87219,0-14.41187,4.8039-14.41187,12.00971,0,2.53522.80121,8.00616,11.34369,10.67547l10.94214,2.93494C577.98679,66.28,589.06222,74.01965,589.06222,88.69781Zm10.32038,26.42041h15.47784V52.80285H599.3826Zm52.3053-85.267H636.20822V52.80285H624.9996V65.21227h11.20862v49.90595H651.6879V65.21227h13.21087V52.80285H651.6879ZM768.54959,78.95678,758.5419,76.28747c-3.603-.80036-6.67291-2.6684-6.67291-5.87073,0-3.87024,3.33642-6.5387,8.14044-6.5387,4.4024,0,8.27368,2.66846,8.27368,7.07257h14.81165c.13324-14.011-12.40967-19.482-23.48688-19.482-13.61066,0-23.21857,8.54-23.21857,18.28107,0,7.87292,3.603,15.34521,17.61511,19.08136l8.27375,2.13458c4.67071,1.06769,7.33917,2.66931,7.33917,6.13806,0,4.00354-4.00452,6.80609-10.1427,6.80609-6.538,0-10.27417-4.00354-10.27417-8.27356H734.65536c.26648,13.34394,12.67615,20.81623,25.08753,20.81623,12.67615,0,25.35229-6.67194,25.35229-19.34876C785.09518,91.3662,782.56,82.55968,768.54959,78.95678Zm-51.08874,9.333h13.76721a32.99561,32.99561,0,1,1-1.046-13.27716L708.35568,85.659,685.15933,96.97369a18.86087,18.86087,0,0,0,32.30152-8.684ZM680.42105,87.258l32.51209-15.85865A18.87471,18.87471,0,0,0,680.42105,87.258Zm-73.3042-63.86292c-5.08356,0-9.42114,3.71942-9.42114,8.80207,0,4.959,4.33758,8.80145,9.42114,8.80145,5.20569,0,9.29749-3.84241,9.29749-8.80145C616.41434,27.11449,612.32254,23.39507,607.11685,23.39507Z" style="fill: #00b140"/>
      <path d="M168.99637,23.17925h55.77685V37.72411H185.27548v24.953h31.22577V77.222H185.27548v37.89624H168.99637ZM366.53061,78.95678l-10.00769-2.66931c-3.603-.80036-6.673-2.6684-6.673-5.87073,0-3.87024,3.33649-6.5387,8.14045-6.5387,4.40246,0,8.27374,2.66846,8.27374,7.07257h14.81164c.13324-14.011-12.40966-19.482-23.4851-19.482-13.61243,0-23.22034,8.54-23.22034,18.28107,0,7.87292,3.603,15.34521,17.61511,19.08136l8.27368,2.13458c4.67078,1.06769,7.33924,2.66931,7.33924,6.13806,0,4.00354-4.00452,6.80609-10.1427,6.80609-6.538,0-10.27417-4.00354-10.27417-8.27356H332.63632c.26654,13.34394,12.67615,20.81623,25.08759,20.81623,12.67614,0,25.35229-6.67194,25.35229-19.34876C383.0762,91.3662,380.541,82.55968,366.53061,78.95678Zm60.444-27.48816c-6.27142,0-16.27912,3.33557-19.34912,10.80786V19.44311H392.14761v95.67511h15.47785V82.55968c0-12.00964,8.8067-15.87909,15.87939-15.87909,6.93945,0,12.9444,5.07038,12.9444,14.94465v33.493h15.47967V80.15777C451.92892,62.01,442.98721,51.46862,426.97458,51.46862Zm75.17212,1.33423L486.13406,92.30071,469.98819,52.80285H453.04105l24.81933,58.04535L463.85,145.54217h16.27911L518.8273,52.80285ZM269.684,53.5285a23.08948,23.08948,0,0,0-9.98785-2.05988c-7.739,0-14.54517,4.27-17.88166,14.67816V52.80285H226.33664v62.31537h15.61108V93.36755c0-17.4798,5.60523-27.35492,15.74616-27.35492a19.071,19.071,0,0,1,1.92407.09893A39.747,39.747,0,0,1,269.684,53.5285Zm43.79425,34.76123h13.767a32.99852,32.99852,0,1,1-1.046-13.27716L304.37308,85.659,281.17673,96.97369a18.86094,18.86094,0,0,0,32.30151-8.684ZM276.43851,87.258l32.512-15.85865a18.87466,18.87466,0,0,0-32.512,15.85865Z" style="fill: #00b140"/>
    </g>
    <g>
      <path d="M115.963,20.02563a67.84957,67.84957,0,1,0-.30066,95.96466l.01544.02313a67.86883,67.86883,0,0,0,.30835-95.96448Zm-8.2027,87.976a56.58507,56.58507,0,1,1,.25446-80.03345l.001.0011A56.60108,56.60108,0,0,1,107.76028,108.00164Z" style="fill: #00b140"/>
      <path d="M64.71219,63.31506a1.35676,1.35676,0,0,0,1.757-1.105s-12.25476-35.819-16.866-41.26239c-1.8905-2.22479-17.5036,5.829-15.97644,9.78907C33.62674,30.73675,48.64682,49.44726,64.71219,63.31506ZM46.69705,42.42431c-1.76452-5.74,17.15521,17.60553,17.15521,17.60553S48.46146,48.16424,46.69705,42.42431Zm5.76776-6.97107c.32624-1.48309,9.28192,19.28155,8.81488,18.53992S52.109,36.90685,52.46481,35.45324ZM59.0704,52.46551S46.65256,34.14806,46.36337,29.7578,59.0704,52.46551,59.0704,52.46551ZM70.96194,71.569h-.02221a1.35683,1.35683,0,0,0-1.69037,1.2088s14.3009,35.05524,19.21619,40.22419c2.01654,2.12091,17.14038-6.8227,15.39074-10.70124C103.87112,102.30077,87.79837,84.50243,70.96194,71.569ZM77.58231,83.6422h-.02222c0-3.90826,13.78943,23.41962,13.78943,23.41962S77.58231,87.543,77.58231,83.6422Zm8.066,6.24427h-.02222c.25946-2.59565,7.80658,12.49585,7.80658,12.49585S85.38895,92.48949,85.64835,89.88647ZM71.16208,63.13708a1.35708,1.35708,0,0,0,1.11206,1.75018c20.4469-5.65094,42.0354-16.12976,42.0354-16.12976,3.07672-2.96631-7.13928-17.18274-9.80078-15.97394C98.01437,35.72771,71.16208,63.13708,71.16208,63.13708ZM104.531,47.16314l-.00744.00738c-.0445,1.8985-19.16431,9.433-19.16431,9.433S104.57547,45.26464,104.531,47.16314Zm-.949-9.38123c-.87482,3.87854-20.97321,19.71161-20.97321,19.71161S104.44943,33.9182,103.582,37.78191ZM97.38339,54.58733l.0008-.00085v.00745l-.0008-.0066c-.51959,1.15815-19.22284,5.72425-19.22284,5.72425S97.80356,53.47185,97.38339,54.58733ZM64.94492,70.39263a1.44768,1.44768,0,0,0-.23273.07135s-26.76331,29.55267-29.36542,36.64227c-1.43085,3.89344,15.56867,12.90381,18.3858,9.411,0,0,8.71106-22.9895,12.922-45.02234A1.43822,1.43822,0,0,0,64.94492,70.39263ZM52.109,113.42467c-1.37891-1.93548,3.84027-18.79943,3.84027-18.79943S53.48056,115.36767,52.109,113.42467ZM51.09335,99.27508v-.0149C50.352,98.03661,59.404,83.09344,59.404,83.09344S51.86435,100.49865,51.09335,99.27508Zm-7.31732,1.98v-.01483c-1.201-1.90589,19.60169-25.637,19.60169-25.637S44.96963,103.14617,43.776,101.25512Zm20.19476-31.1322a1.357,1.357,0,0,0-1.10455-1.75763S25.32346,81.64,19.867,86.24517C17.68,88.13628,26.16116,103.784,30.11264,102.30077,30.11264,102.30077,50.14438,86.18584,63.97079,70.12292ZM45.37,80.14928s-13.60406,5.332-14.53076,4.368S45.37,80.14928,45.37,80.14928ZM28.148,88.87041c-.74133-.63769,18.48224-7.96472,18.48224-7.96472S28.85977,89.50079,28.148,88.87041Zm20.42468-8.07592s-10.21606,7.24542-12.06946,7.02288S48.57272,80.79449,48.57272,80.79449ZM33.82693,95.87115c-2.884.1112,22.33735-20.83893,22.33735-20.83893S36.71085,95.75249,33.82693,95.87115Zm32.93988-22.7641a1.35917,1.35917,0,0,0-.14428.18646s-4.01612,36.33466-2.26514,43.24866c1.1449,4.52093,18.36847,2.34759,18.66388-1.88288,0,0-5.62537-22.274-14.33728-41.62823A1.35637,1.35637,0,0,0,66.76681,73.10705Zm.91083,9.49688c.519-4.16772.77851,31.2287.77851,31.2287S67.17355,86.76434,67.67764,82.60393Zm4.15906,5.72516c.519-9.37371,4.68542,26.02259,4.68542,26.02259S71.34006,97.69543,71.859,88.32909Zm-1.29736,9.10675c.25952-6.50372,1.29736,16.39679,1.29736,16.39679s-1.53461-9.89294-1.27509-16.39679Zm-7.6435-31.5252h.00745l.44482.089a1.43887,1.43887,0,0,0,1.02307-1.943S36.19931,38.8424,29.149,36.24682c-3.89966-1.43128-12.6922,14.62427-9.193,17.44977a309.10787,309.10787,0,0,0,30.87793,9.52209c-11.23175-2.11359-27.08215-4.79816-31.48584-4.02692-5.25628.91962-4.15167,18.99231.0445,19.65235,0,0,23.227-4.25678,43.25866-11.23517A1.37225,1.37225,0,0,0,62.89584,65.91064ZM42.87155,53.78551h.01483s-5.18951-4.60522-6.22741-6.23675S52.16086,58.287,53.33231,60.45989c0,0-16.13221-7.41589-17.05146-9.56653S42.87155,53.78551,42.87155,53.78551Zm7.42108,12.96314S39.313,64.6574,38.631,64.31622,48.76541,65.06524,50.29263,66.74865Zm-2.03131.97143s-25.20642.34864-26.2666-1.13458S48.26132,67.72015,48.26132,67.72008Zm.3114.73426v.00738s-13.47809,3.07764-14.61236,1.7724S48.57272,68.45434,48.57272,68.45434ZM24.35965,74.743c-1.16388-1.29779,28.99487-6.3554,28.99487-6.3554S25.49393,76.05566,24.35965,74.743ZM33.7009,54.39361h.02221c-1.48272-2.373,25.85883,10.019,25.85883,10.019S35.2059,56.76678,33.7009,54.39361Zm83.17553-.07941c-7.533-.5116-44.66748,11.27136-44.66748,11.27136a1.43135,1.43135,0,0,0,.15338,2.22162c21.867,5.08472,45.76661,6.43775,45.76661,6.43775C122.45871,73.04345,121.01358,54.56414,116.87643,54.3142Zm-7.60809,6.26434c.36328,1.2237-29.73627,5.525-29.73627,5.525S108.91244,59.34753,109.26834,60.57854ZM85.90042,66.64483s25.73285,3.24078,25.65869,4.11584S85.90042,66.64483,85.90042,66.64483Zm4.14423-.34113s22.241-4.53857,22.84887-2.62524S90.04465,66.3037,90.04465,66.3037Zm26.14795,12.266a297.55963,297.55963,0,0,0-44.02222-9.77423,1.43845,1.43845,0,0,0-.91187,2.00232s29.5434,23.54566,36.76429,25.7334C111.99655,97.73992,119.84763,81.20977,116.1926,78.56969Zm-37.046-5.59906-.02222-.01483c-4.16644-4.68689,26.54089,15.618,27.83826,16.65625C106.97006,89.62688,83.30563,77.65752,79.14658,72.97063Zm15.08685,3.6413-.02228-.01489c3.38062-.74158,15.87262,7.03033,15.87262,7.03033S90.85275,77.398,94.23343,76.61193ZM68.9899,62.15075a1.39345,1.39345,0,0,0,1.59393.43756C85.47049,47.46716,98.48141,28.53423,98.48141,28.53423c1.19361-4.07879-15.14605-10.63446-16.84381-8.254-2.83941,3.9082-7.6806,21.3283-10.56451,32.27423,2.0462-11.12391,5.03393-28.83326,4.27032-33.55719-.74139-4.60535-18.0968-3.9527-18.75653.24469-.02972,0,3.67713,22.678,10.63111,42.71594A1.36391,1.36391,0,0,0,68.9899,62.15075ZM91.40134,31.99749c1.2752,1.68335-17.53327,24.81378-17.53327,24.81378S90.12619,30.31408,91.40134,31.99749ZM81.823,35.55712c.56341.88995-8.9928,21.89929-8.9928,21.89929S81.25949,34.67467,81.823,35.55712ZM68.03354,25.59753C69.368,24.75207,69.51627,46.288,69.51627,46.288S66.69907,26.44292,68.03354,25.59753Zm-6.28681.23724c1.59394-1.42389,5.03394,27.98047,5.03394,27.98047S60.1528,27.25866,61.74673,25.83477Zm5.54541,14.3573c1.08985-.89734.32624,14.958.32624,14.958s-1.4234-14.06061-.31885-14.958Z" style="fill: #dbe442"/>
    </g>
  </g>
</svg>
