<?xml version="1.0" encoding="UTF-8"?>
<svg width="69px" height="69px" viewBox="0 0 69 69" version="1.1" xmlns="http://www.w3.org/2000/svg" xmlns:xlink="http://www.w3.org/1999/xlink">
    <title>buy-icon1</title>
    <defs>
        <filter x="-23.5%" y="-23.5%" width="147.1%" height="147.1%" filterUnits="objectBoundingBox" id="filter-1">
            <feOffset dx="0" dy="2" in="SourceAlpha" result="shadowOffsetOuter1"></feOffset>
            <feGaussianBlur stdDeviation="2" in="shadowOffsetOuter1" result="shadowBlurOuter1"></feGaussianBlur>
            <feColorMatrix values="0 0 0 0 0   0 0 0 0 0   0 0 0 0 0  0 0 0 0.1 0" type="matrix" in="shadowBlurOuter1" result="shadowMatrixOuter1"></feColorMatrix>
            <feMerge>
                <feMergeNode in="shadowMatrixOuter1"></feMergeNode>
                <feMergeNode in="SourceGraphic"></feMergeNode>
            </feMerge>
        </filter>
    </defs>
    <g id="BUY" stroke="none" stroke-width="1" fill="none" fill-rule="evenodd">
        <g transform="translate(-469.000000, -341.000000)" fill-rule="nonzero" id="buy-icon1">
            <g filter="url(#filter-1)" transform="translate(478.000000, 350.000000)">
                <path d="M0.745542611,19.1765472 C3.12854025,9.32868789 11.2165901,1.89410529 21.2248242,0.35187201 C31.2330584,-1.19036127 41.1818168,3.46481335 46.4154981,12.1389695 C51.6491794,20.8131257 51.132545,31.7904882 45.1073582,39.934112 C39.0821714,48.0777359 28.740233,51.7767869 18.921136,49.3002643 C12.5131305,47.7266248 6.99470877,43.6653836 3.58448071,38.0133676 C0.174252642,32.3613515 -0.847251545,25.5835035 0.745542611,19.1765472" id="路径" fill="#F7F8F8"></path>
                <path d="M48.103183,15.3652393 L28.4737757,15.3652393 L28.4737757,19.1120907 L49.3439397,19.1120907 C49.0267496,17.8338669 48.6119723,16.5813177 48.103183,15.3652393 M43.0765276,7.58816121 L28.4737757,7.58816121 L28.4737757,11.429471 L46.0988837,11.429471 C45.2191203,10.0554552 44.2069417,8.76901125 43.0765276,7.58816121 M6.36285489,42.2229219 L42.9810848,42.2229219 C44.1543533,41.0382045 45.2190099,39.7527199 46.1625123,38.3816121 L3.30868455,38.3816121 C4.23147056,39.7679344 5.29770345,41.0553222 6.49011199,42.2229219 M30.7325891,0.472292191 C30.0008608,0.283375315 29.2373182,0.125944584 28.4737757,0 L28.4737757,3.74685139 L38.4316436,3.74685139 C36.0683847,2.26494892 33.4634807,1.19964424 30.7325891,0.598236776 M49.8211538,23.0793451 L28.4737757,23.0793451 L28.4737757,26.9206549 L49.9165967,26.9206549 C50.0278011,25.6425833 50.0278011,24.3574167 49.9165967,23.0793451 M1.27257098,34.47733 L48.0395545,34.47733 C48.5468515,33.2961436 48.9513017,32.07424 49.2484969,30.824937 L49.2484969,30.6360202 L0,30.6360202 C0.308733629,31.9511382 0.734588759,33.2366001 1.27257098,34.47733 M18.5795363,49.1498741 C20.0445755,49.571786 21.5464579,49.8564143 23.065349,50 L26.2467764,50 C30.4898323,49.7492453 34.5972128,48.4267596 38.1771294,46.1586902 L11.0713675,46.1586902 C13.3839587,47.6062232 15.9201392,48.6697922 18.5795363,49.3073048" id="形状" fill="#E72D14"></path>
                <path d="M26.5799689,25.5493012 L26.0520186,25.1766304 L25.5240683,25.5493012 L25.7104037,24.9281832 L25.1824534,24.5555124 L25.8346273,24.5555124 L26.0520186,23.9033385 L26.2694099,24.5555124 L26.9215839,24.5555124 L26.3936335,24.9281832 L26.5799689,25.5493012 Z M23.9712733,5.61141304 L24.1576087,6.35675466 L23.6296584,5.95302795 L23.1017081,6.35675466 L23.2880435,5.70458075 L22.7600932,5.33190994 L23.4122671,5.33190994 L23.6296584,4.67973602 L23.8470497,5.33190994 L24.4992236,5.33190994 L23.9712733,5.61141304 Z M23.9712733,11.3256988 L24.1576087,11.9468168 L23.6296584,11.5430901 L23.1017081,11.9468168 L23.2880435,11.3256988 L22.7600932,10.921972 L23.4122671,10.921972 L23.6296584,10.300854 L23.8470497,10.921972 L24.4992236,10.921972 L23.9712733,11.3256988 Z M23.9712733,16.884705 L24.1886646,17.5368789 L23.6296584,17.1331522 L23.1017081,17.5368789 L23.3190994,16.884705 L22.7600932,16.5120342 L23.443323,16.5120342 L23.6296584,15.8909161 L23.8470497,16.5120342 L24.4371118,16.5120342 L23.9712733,16.884705 Z M23.9712733,23.0958851 L23.443323,22.7232143 L22.9153727,23.0958851 L23.1017081,22.4747671 L22.6669255,21.884705 L23.3190994,21.884705 L23.5364907,21.263587 L23.7228261,21.884705 L24.4060559,21.884705 L23.8470497,22.2884317 L23.9712733,23.0958851 Z M21.4246894,8.3753882 L21.6420807,8.99650621 L21.1141304,8.6238354 L20.5551242,8.99650621 L20.7725155,8.3753882 L20.2445652,8.00271739 L20.8967391,8.00271739 L21.1141304,7.35054348 L21.3004658,8.00271739 L21.9836957,8.00271739 L21.4246894,8.3753882 Z M21.4246894,13.9033385 L21.6420807,14.5244565 L21.1141304,14.1517857 L20.5551242,14.5244565 L20.7725155,13.9033385 L20.2445652,13.4996118 L20.8967391,13.4996118 L21.1141304,12.8784938 L21.3004658,13.4996118 L21.9836957,13.4996118 L21.4246894,13.9033385 Z M21.4246894,19.5555124 L21.6420807,20.1766304 L21.1141304,19.7729037 L20.5551242,20.1766304 L20.7725155,19.5555124 L20.2445652,19.1517857 L20.8967391,19.1517857 L21.1141304,18.5306677 L21.3004658,19.1517857 L21.9836957,19.1517857 L21.4246894,19.5555124 Z M21.6420807,25.5493012 L21.1141304,25.1766304 L20.5551242,25.5493012 L20.7725155,24.9281832 L20.2445652,24.5555124 L20.8967391,24.5555124 L21.1141304,23.9033385 L21.3004658,24.5555124 L21.9836957,24.5555124 L21.4246894,24.990295 L21.6420807,25.5493012 Z M19.0023292,5.61141304 L19.2197205,6.35675466 L18.6917702,5.95302795 L18.132764,6.35675466 L18.3501553,5.70458075 L17.822205,5.33190994 L18.5364907,5.33190994 L18.753882,4.67973602 L18.9402174,5.33190994 L19.6234472,5.33190994 L19.0023292,5.61141304 Z M19.0023292,11.3256988 L19.2197205,11.9468168 L18.6917702,11.5430901 L18.132764,11.9468168 L18.3501553,11.3256988 L17.822205,10.921972 L18.5364907,10.921972 L18.753882,10.300854 L18.9402174,10.921972 L19.6234472,10.921972 L19.0023292,11.3256988 Z M19.0023292,16.884705 L19.1886646,17.5368789 L18.5364907,17.1331522 L18.0085404,17.5368789 L18.1948758,16.884705 L17.6669255,16.5120342 L18.5364907,16.5120342 L18.5364907,15.8909161 L18.753882,16.5120342 L19.4060559,16.5120342 L19.0023292,16.884705 Z M19.0023292,23.0958851 L18.5364907,22.6611025 L17.9774845,23.0337733 L18.1948758,22.4126553 L17.7290373,21.884705 L18.5364907,21.884705 L18.5364907,21.3878106 L18.7228261,22.0089286 L19.375,22.0089286 L18.8470497,22.4126553 L19.0023292,23.0958851 Z M16.3625776,2.90954969 L16.5799689,3.5617236 L16.1451863,3.2511646 L15.617236,3.6548913 L15.8346273,3.00271739 L15.4309006,2.47476708 L16.0830745,2.47476708 L16.2694099,1.85364907 L16.4868012,2.47476708 L17.1389752,2.47476708 L16.3625776,2.90954969 Z M16.3625776,8.4375 L16.5799689,9.05861801 L16.0209627,8.6859472 L15.4930124,9.05861801 L15.7104037,8.4375 L15.4309006,8.00271739 L16.0830745,8.00271739 L16.2694099,7.35054348 L16.4868012,8.00271739 L17.1389752,8.00271739 L16.3625776,8.4375 Z M16.3625776,13.9654503 L16.5799689,14.5865683 L16.0209627,14.2138975 L15.4930124,14.5865683 L15.7104037,13.9654503 L15.4309006,13.4996118 L16.0830745,13.4996118 L16.2694099,12.8784938 L16.4868012,13.4996118 L17.1389752,13.4996118 L16.3625776,13.9654503 Z M16.3625776,19.6176242 L16.5799689,20.2387422 L16.0209627,19.8350155 L15.4930124,20.2387422 L15.7104037,19.6176242 L15.4309006,19.1517857 L16.0830745,19.1517857 L16.2694099,18.5306677 L16.4868012,19.1517857 L17.1389752,19.1517857 L16.3625776,19.6176242 Z M16.5799689,25.611413 L16.0209627,25.2387422 L15.4930124,25.611413 L15.7104037,24.990295 L15.4309006,24.5555124 L16.0830745,24.5555124 L16.2694099,23.9033385 L16.4868012,24.5555124 L17.1389752,24.5555124 L16.4868012,24.990295 L16.5799689,25.611413 Z M14.064441,5.42507764 L14.2818323,6.04619565 L13.7228261,5.67352484 L13.1948758,6.04619565 L13.4122671,5.42507764 L12.8532609,5.02135093 L13.5364907,5.02135093 L13.7228261,4.40023292 L13.9402174,5.02135093 L14.5923913,5.02135093 L14.064441,5.42507764 Z M14.064441,11.1083075 L14.2818323,11.7294255 L13.7228261,11.3567547 L13.1948758,11.7294255 L13.4122671,11.1083075 L12.8532609,10.7356366 L13.5364907,10.7356366 L13.7228261,10.1145186 L13.9402174,10.7356366 L14.5923913,10.7356366 L14.064441,11.1083075 Z M14.064441,16.6983696 L14.2818323,17.3194876 L13.753882,16.9468168 L13.1948758,17.3194876 L13.4122671,16.6983696 L12.822205,16.2946429 L13.4743789,16.2946429 L13.6917702,15.6735248 L13.8781056,16.2946429 L14.5613354,16.2946429 L14.064441,16.6983696 Z M14.064441,22.9095497 L13.5364907,22.505823 L13.0085404,22.9095497 L13.2259317,22.2884317 L12.7600932,21.884705 L13.443323,21.884705 L13.6296584,21.263587 L13.8470497,21.884705 L14.4992236,21.884705 L13.9712733,22.2884317 L14.064441,22.9095497 Z M11.548913,8.3753882 L11.7352484,8.99650621 L11.2072981,8.6238354 L10.6793478,8.99650621 L10.8967391,8.3753882 L10.3377329,8.00271739 L11.0209627,8.00271739 L11.2072981,7.35054348 L11.4246894,8.00271739 L12.0768634,8.00271739 L11.548913,8.3753882 Z M11.548913,13.9033385 L11.7352484,14.5244565 L11.2072981,14.1517857 L10.6793478,14.5244565 L10.8967391,13.9033385 L10.3377329,13.4996118 L11.0209627,13.4996118 L11.2072981,12.8784938 L11.4246894,13.4996118 L12.0768634,13.4996118 L11.548913,13.9033385 Z M11.548913,19.5555124 L11.7352484,20.1766304 L11.2072981,19.7729037 L10.6793478,20.1766304 L10.8967391,19.5555124 L10.3377329,19.1517857 L11.0209627,19.1517857 L11.2072981,18.5306677 L11.4246894,19.1517857 L12.0768634,19.1517857 L11.548913,19.5555124 Z M11.7352484,25.5493012 L11.2072981,25.1766304 L10.6793478,25.5493012 L10.8967391,24.9281832 L10.3377329,24.5555124 L11.0209627,24.5555124 L11.2072981,23.9033385 L11.4246894,24.5555124 L12.0768634,24.5555124 L11.548913,24.990295 L11.7352484,25.5493012 Z M9.2197205,11.0772516 L9.4060559,11.6983696 L8.87810559,11.2946429 L8.35015528,11.6983696 L8.53649068,11.0772516 L8.00854037,10.6735248 L8.59860248,10.6735248 L8.78493789,10.0524068 L9.00232919,10.6735248 L9.65450311,10.6735248 L9.2197205,11.0772516 Z M9.2197205,16.6362578 L9.4371118,17.2573758 L8.90916149,16.884705 L8.35015528,17.2573758 L8.56754658,16.6362578 L8.03959627,16.263587 L8.69177019,16.263587 L8.75388199,15.6735248 L8.94021739,16.3256988 L9.5923913,16.3256988 L9.2197205,16.6362578 Z M9.2197205,22.8474379 L8.69177019,22.4747671 L8.16381988,22.8474379 L8.35015528,22.2263199 L7.82220497,21.884705 L8.47437888,21.884705 L8.69177019,21.263587 L8.90916149,21.884705 L9.5613354,21.884705 L9.03338509,22.2884317 L9.2197205,22.8474379 Z M20.8967391,2.47476708 L21.1141304,1.85364907 L21.3004658,2.47476708 L21.9836957,2.47476708 L21.4246894,2.84743789 L21.6420807,3.4996118 L21.1141304,3.2511646 L20.5551242,3.6548913 L20.7725155,3.00271739 L20.2445652,2.63004658 L20.8967391,2.47476708 Z M25.8346273,19.1517857 L26.0520186,18.5306677 L26.2694099,19.1517857 L26.9215839,19.1517857 L26.3936335,19.5555124 L26.5799689,20.1766304 L26.0520186,19.7729037 L25.5240683,20.1766304 L25.7104037,19.5555124 L25.1824534,19.1517857 L25.8346273,19.1517857 Z M25.8346273,13.4996118 L26.0520186,12.8784938 L26.2694099,13.4996118 L26.9215839,13.4996118 L26.3936335,13.9033385 L26.5799689,14.5244565 L26.0520186,14.1517857 L25.5240683,14.5244565 L25.7104037,13.9033385 L25.1824534,13.4996118 L25.8346273,13.4996118 Z M25.8346273,8.00271739 L26.0520186,7.35054348 L26.2694099,8.00271739 L26.9215839,8.00271739 L26.3936335,8.3753882 L26.5799689,8.99650621 L26.0520186,8.6238354 L25.5240683,8.99650621 L25.7104037,8.3753882 L25.1824534,8.00271739 L25.8346273,8.00271739 Z M25.8346273,2.47476708 L26.0520186,1.85364907 L26.2694099,2.47476708 L26.9215839,2.47476708 L26.3936335,2.84743789 L26.5799689,3.4996118 L26.0520186,3.2511646 L25.5240683,3.6548913 L25.7104037,3.00271739 L25.1824534,2.63004658 L25.8346273,2.47476708 Z M6.61102484,13.9033385 L6.79736025,14.5244565 L6.26940994,14.1517857 L5.74145963,14.5244565 L5.92779503,13.9033385 L5.39984472,13.4996118 L6.11413043,13.4996118 L6.33152174,12.8784938 L6.51785714,13.4996118 L7.20108696,13.4996118 L6.61102484,13.9033385 Z M6.61102484,19.5555124 L6.79736025,20.1766304 L6.26940994,19.7729037 L5.74145963,20.1766304 L5.92779503,19.5555124 L5.39984472,19.1517857 L6.11413043,19.1517857 L6.33152174,18.5306677 L6.51785714,19.1517857 L7.20108696,19.1517857 L6.61102484,19.5555124 Z M6.79736025,25.5493012 L6.26940994,25.1766304 L5.74145963,25.5493012 L5.92779503,24.9281832 L5.39984472,24.5555124 L6.11413043,24.5555124 L6.33152174,23.9033385 L6.51785714,24.5555124 L7.20108696,24.5555124 L6.61102484,24.990295 L6.79736025,25.5493012 Z M4.1265528,16.5430901 L4.3128882,17.1642081 L3.78493789,16.7915373 L3.25698758,17.1642081 L3.44332298,16.5430901 L3.00854037,16.1704193 L3.69177019,16.1704193 L3.78493789,15.6735248 L4.00232919,16.3256988 L4.65450311,16.3256988 L4.1265528,16.5430901 Z M4.2818323,22.7542702 L3.75388199,22.3505435 L3.19487578,22.7542702 L3.41226708,22.1331522 L3.00854037,21.6673137 L3.66071429,21.6673137 L3.87810559,21.0461957 L4.06444099,21.6673137 L4.71661491,21.6673137 L4.1886646,22.0710404 L4.2818323,22.7542702 Z M1.85947205,25.611413 L1.33152174,25.2387422 L0.772515528,25.611413 L0.989906832,24.990295 L0.461956522,24.6176242 L1.11413043,24.6176242 L1.33152174,23.9654503 L1.51785714,24.6176242 L2.17003106,24.6176242 L1.64208075,24.990295 L1.85947205,25.611413 Z M28.4743789,0.518245342 L26.1762422,0.145574534 L21.6420807,0.42507764 C17.0934318,1.00483023 12.793962,2.83210487 9.2197205,5.70458075 L9.2197205,5.98408385 L9.2197205,5.82880435 C8.38478549,6.48806777 7.60573877,7.21517805 6.89052795,8.00271739 L7.26319876,8.00271739 L6.73524845,8.3753882 L6.92158385,8.99650621 L6.39363354,8.6238354 L6.11413043,8.77911491 C5.61723602,9.33812112 5.15139752,9.95923913 4.68555901,10.5803571 L4.3439441,11.0461957 L4.3439441,11.4809783 L4.03338509,11.2946429 C2.49283364,13.6714574 1.37881913,16.2988501 0.741459627,19.058618 L1.14518634,19.058618 L1.36257764,18.4375 L1.54891304,19.058618 L2.20108696,19.058618 L1.67313665,19.4623447 L1.89052795,20.0834627 L1.36257764,19.679736 L0.803571429,20.0834627 L1.02096273,19.4623447 L0.710403727,19.2138975 C0.100450018,21.722141 -0.0988224643,24.3126832 0.120341615,26.884705 L28.4743789,26.884705 L28.4743789,0.518245342 Z" id="形状" fill="#073470"></path>
            </g>
        </g>
    </g>
</svg>